<svg width="100" height="100" viewBox="0 0 100 100" fill="none" xmlns="http://www.w3.org/2000/svg">
<rect width="100" height="100" rx="8" fill="#F2F2F2"/>
<path d="M49.25 40.75H44.25C44.0375 40.75 43.8594 40.6781 43.7158 40.5342C43.5719 40.3904 43.5 40.2122 43.5 39.9997C43.5 39.7871 43.5719 39.609 43.7158 39.4655C43.8594 39.3218 44.0375 39.25 44.25 39.25H49.25V34.25C49.25 34.0375 49.3219 33.8594 49.4658 33.7158C49.6096 33.5719 49.7878 33.5 50.0003 33.5C50.2129 33.5 50.391 33.5719 50.5345 33.7158C50.6782 33.8594 50.75 34.0375 50.75 34.25V39.25H55.75C55.9625 39.25 56.1406 39.3219 56.2843 39.4658C56.4281 39.6096 56.5 39.7878 56.5 40.0003C56.5 40.2129 56.4281 40.391 56.2843 40.5345C56.1406 40.6782 55.9625 40.75 55.75 40.75H50.75V45.75C50.75 45.9625 50.6781 46.1406 50.5342 46.2843C50.3904 46.4281 50.2122 46.5 49.9997 46.5C49.7871 46.5 49.609 46.4281 49.4655 46.2843C49.3218 46.1406 49.25 45.9625 49.25 45.75V40.75Z" fill="#777777"/>
<path d="M31.2617 59.332C31.2617 60.082 31.1348 60.8164 30.8809 61.5352C30.627 62.2539 30.2793 62.8906 29.8379 63.4453C29.3965 64 28.9023 64.4258 28.3555 64.7227L27.7695 63.9844C28.2773 63.7344 28.7383 63.3633 29.1523 62.8711C29.5664 62.3789 29.8965 61.8203 30.1426 61.1953C30.3887 60.5703 30.5117 59.9492 30.5117 59.332V57.4336H31.2617V59.332ZM31.4141 59.332C31.4141 59.9258 31.5352 60.5215 31.7773 61.1191C32.0195 61.7168 32.3477 62.25 32.7617 62.7188C33.1758 63.1875 33.625 63.543 34.1094 63.7852L33.5469 64.5234C33.0078 64.2344 32.5195 63.8223 32.082 63.2871C31.6445 62.752 31.3008 62.1387 31.0508 61.4473C30.8008 60.7559 30.6758 60.0508 30.6758 59.332V57.4336H31.4141V59.332ZM35.9844 66.9492H35.0703V56.5312H35.9844V66.9492ZM37.7305 61.5586H35.7734V60.7617H37.7305V61.5586ZM41.8789 58.7695C41.8789 59.3867 41.7539 59.9707 41.5039 60.5215C41.2539 61.0723 40.9062 61.5508 40.4609 61.957C40.0156 62.3633 39.5039 62.6719 38.9258 62.8828L38.4453 62.1445C38.9609 61.957 39.4219 61.6914 39.8281 61.3477C40.2344 61.0039 40.5508 60.6094 40.7773 60.1641C41.0039 59.7188 41.1172 59.2539 41.1172 58.7695V57.6797H41.8789V58.7695ZM42.043 58.7695C42.043 59.2305 42.1562 59.6719 42.3828 60.0938C42.6094 60.5156 42.9258 60.8867 43.332 61.207C43.7383 61.5273 44.1992 61.7695 44.7148 61.9336L44.2461 62.6719C43.668 62.4766 43.1543 62.1855 42.7051 61.7988C42.2559 61.4121 41.9062 60.959 41.6562 60.4395C41.4062 59.9199 41.2812 59.3633 41.2812 58.7695V57.6797H42.043V58.7695ZM44.4453 58.1602H38.6797V57.4102H44.4453V58.1602ZM46.8945 64.1836H45.9805V56.543H46.8945V64.1836ZM47.2227 66.7266H40.168V65.9531H47.2227V66.7266ZM41.082 66.293H40.168V63.457H41.082V66.293ZM61.1797 62.2617H51.6758V61.4883H61.1797V62.2617ZM60.0664 60.4922H52.8828V59.7422H60.0664V60.4922ZM59.9961 57.7266H53.7852V60.1055H52.8828V56.9531H59.9961V57.7266ZM56.4219 63.1758C57.1641 63.1758 57.8047 63.248 58.3438 63.3926C58.8828 63.5371 59.2949 63.75 59.5801 64.0312C59.8652 64.3125 60.0078 64.6523 60.0078 65.0508C60.0078 65.4492 59.8652 65.7891 59.5801 66.0703C59.2949 66.3516 58.8848 66.5645 58.3496 66.709C57.8145 66.8535 57.1719 66.9258 56.4219 66.9258C55.6719 66.9258 55.0273 66.8535 54.4883 66.709C53.9492 66.5645 53.5371 66.3516 53.252 66.0703C52.9668 65.7891 52.8242 65.4492 52.8242 65.0508C52.8242 64.6523 52.9668 64.3125 53.252 64.0312C53.5371 63.75 53.9492 63.5371 54.4883 63.3926C55.0273 63.248 55.6719 63.1758 56.4219 63.1758ZM56.4219 63.8906C55.8672 63.8906 55.3906 63.9375 54.9922 64.0312C54.5938 64.125 54.2891 64.2578 54.0781 64.4297C53.8672 64.6016 53.7617 64.8086 53.7617 65.0508C53.7617 65.293 53.8672 65.5 54.0781 65.6719C54.2891 65.8438 54.5938 65.9746 54.9922 66.0645C55.3906 66.1543 55.8672 66.1992 56.4219 66.1992C56.9766 66.1992 57.4531 66.1543 57.8516 66.0645C58.25 65.9746 58.5547 65.8438 58.7656 65.6719C58.9766 65.5 59.082 65.293 59.082 65.0508C59.082 64.8086 58.9766 64.6016 58.7656 64.4297C58.5547 64.2578 58.25 64.125 57.8516 64.0312C57.4531 63.9375 56.9766 63.8906 56.4219 63.8906ZM71.5742 63.0352H62.0352V62.2734H71.5742V63.0352ZM70.3438 59.3203H64.1914V60.7383H63.2773V58.6289H69.418V57.5508H63.2422V56.8008H70.3438V59.3203ZM70.5664 61.1719H63.2773V60.4336H70.5664V61.1719ZM67.25 62.6484H66.3477V60.8086H67.25V62.6484ZM70.4023 66.8555H69.4766V64.582H63.1016V63.832H70.4023V66.8555Z" fill="#777777"/>
</svg>
