<svg width="48" height="48" viewBox="0 0 48 48" fill="none" xmlns="http://www.w3.org/2000/svg">
<rect width="48" height="48" rx="24" fill="#2974E5"/>
<path d="M22.875 25.125H15.375C15.0563 25.125 14.7891 25.0171 14.5736 24.8014C14.3579 24.5856 14.25 24.3184 14.25 23.9996C14.25 23.6806 14.3579 23.4135 14.5736 23.1982C14.7891 22.9827 15.0563 22.875 15.375 22.875H22.875V15.375C22.875 15.0563 22.9829 14.7891 23.1986 14.5736C23.4144 14.3579 23.6816 14.25 24.0004 14.25C24.3194 14.25 24.5865 14.3579 24.8018 14.5736C25.0173 14.7891 25.125 15.0563 25.125 15.375V22.875H32.625C32.9438 22.875 33.2109 22.9829 33.4264 23.1986C33.6421 23.4144 33.75 23.6816 33.75 24.0004C33.75 24.3194 33.6421 24.5865 33.4264 24.8018C33.2109 25.0173 32.9438 25.125 32.625 25.125H25.125V32.625C25.125 32.9438 25.0171 33.2109 24.8014 33.4264C24.5856 33.6421 24.3184 33.75 23.9996 33.75C23.6806 33.75 23.4135 33.6421 23.1982 33.4264C22.9827 33.2109 22.875 32.9438 22.875 32.625V25.125Z" fill="white"/>
</svg>
