<svg width="20" height="20" viewBox="0 0 20 20" fill="none" xmlns="http://www.w3.org/2000/svg">
<rect width="20" height="20" rx="10" fill="black" fill-opacity="0.4"/>
<path d="M10 10.7025L6.61801 14.0847C6.52567 14.1769 6.40962 14.2241 6.26984 14.2263C6.13017 14.2285 6.01201 14.1812 5.91534 14.0847C5.81879 13.988 5.77051 13.8709 5.77051 13.7333C5.77051 13.5958 5.81879 13.4787 5.91534 13.382L9.29751 10L5.91534 6.61801C5.82312 6.52568 5.7759 6.40962 5.77367 6.26984C5.77156 6.13017 5.81879 6.01201 5.91534 5.91534C6.01201 5.81879 6.12912 5.77051 6.26667 5.77051C6.40423 5.77051 6.52134 5.81879 6.61801 5.91534L10 9.29751L13.382 5.91534C13.4743 5.82312 13.5904 5.7759 13.7302 5.77367C13.8698 5.77156 13.988 5.81879 14.0847 5.91534C14.1812 6.01201 14.2295 6.12912 14.2295 6.26667C14.2295 6.40423 14.1812 6.52134 14.0847 6.61801L10.7025 10L14.0847 13.382C14.1769 13.4743 14.2241 13.5904 14.2263 13.7302C14.2285 13.8698 14.1812 13.988 14.0847 14.0847C13.988 14.1812 13.8709 14.2295 13.7333 14.2295C13.5958 14.2295 13.4787 14.1812 13.382 14.0847L10 10.7025Z" fill="white"/>
</svg>
