<svg width="16" height="16" viewBox="0 0 16 16" fill="none" xmlns="http://www.w3.org/2000/svg">
<g id="Location Icon">
<path id="Vector" d="M8.00002 13.0091C9.30424 11.8415 10.3023 10.7216 10.9942 9.64942C11.6861 8.57719 12.032 7.63808 12.032 6.83208C12.032 5.61675 11.6459 4.61764 10.8737 3.83475C10.1015 3.05186 9.14357 2.66041 8.00002 2.66041C6.85646 2.66041 5.89857 3.05186 5.12635 3.83475C4.35413 4.61764 3.96802 5.61675 3.96802 6.83208C3.96802 7.63808 4.31396 8.57719 5.00585 9.64942C5.69774 10.7216 6.69579 11.8415 8.00002 13.0091ZM8.00002 13.9602C7.87013 13.9602 7.74024 13.9379 7.61035 13.8931C7.48035 13.8482 7.3628 13.7787 7.25768 13.6847C6.65946 13.1334 6.09963 12.5656 5.57818 11.9814C5.05685 11.3973 4.60368 10.8134 4.21868 10.2296C3.83357 9.6458 3.52885 9.06719 3.30452 8.49375C3.08018 7.92019 2.96802 7.3663 2.96802 6.83208C2.96802 5.29364 3.46563 4.04814 4.46085 3.09558C5.45618 2.14303 6.63591 1.66675 8.00002 1.66675C9.36413 1.66675 10.5438 2.14303 11.5392 3.09558C12.5344 4.04814 13.032 5.29364 13.032 6.83208C13.032 7.3663 12.9198 7.91908 12.6955 8.49042C12.4712 9.06186 12.1676 9.64053 11.7847 10.2264C11.4017 10.8123 10.9495 11.3962 10.4282 11.9782C9.90685 12.5604 9.34702 13.127 8.74868 13.6782C8.64513 13.7722 8.52741 13.8427 8.39552 13.8897C8.26374 13.9367 8.13191 13.9602 8.00002 13.9602ZM8.00118 7.91025C8.33285 7.91025 8.61641 7.79214 8.85185 7.55592C9.08741 7.31969 9.20518 7.03575 9.20518 6.70408C9.20518 6.37241 9.08707 6.0888 8.85085 5.85325C8.61463 5.6178 8.33063 5.50008 7.99885 5.50008C7.66718 5.50008 7.38363 5.61819 7.14818 5.85441C6.91263 6.09064 6.79485 6.37464 6.79485 6.70642C6.79485 7.03808 6.91296 7.32164 7.14918 7.55708C7.38541 7.79253 7.66941 7.91025 8.00118 7.91025Z" fill="#777777"/>
</g>
</svg>
