<svg width="18" height="26" viewBox="0 0 18 26" fill="none" xmlns="http://www.w3.org/2000/svg">
<g id="Group 12013">
<path id="Vector" d="M9.38417 24.7918C9.22453 25.0198 8.88731 25.0199 8.72756 24.792C6.89282 22.1739 3.83201 17.8873 2.45092 15.8248C0.981354 13.6334 0.25 11.6761 0.25 9.78933C0.25 7.09705 1.12082 4.91743 2.86246 3.25046C4.60429 1.58349 6.66881 0.75 9.056 0.75C11.4432 0.75 13.5077 1.58349 15.2495 3.25046C16.9912 4.91743 17.862 6.51606 17.862 9.20833C17.862 11.6761 17.128 13.6334 15.6611 15.8248C14.28 17.8872 11.217 22.1737 9.38417 24.7918Z" fill="black"/>
<ellipse id="Ellipse 2" cx="9.05461" cy="9.50004" rx="4.66667" ry="4.66667" fill="white"/>
</g>
</svg>
